<svg width="29" height="54" viewBox="0 0 29 54" fill="none" xmlns="http://www.w3.org/2000/svg">
<path fill-rule="evenodd" clip-rule="evenodd" d="M2.43286 0.378878C0.998364 1.09187 0.000189085 2.69523 0.000189085 4.28667C0.000189085 6.31787 -0.170098 6.09935 9.70986 16.7475L18.9657 26.7227L9.89397 36.4891C4.90465 41.8605 0.663044 46.5845 0.468041 46.9866C0.24443 47.4483 0.111119 48.1797 0.106448 48.9712C0.0912684 51.5034 1.82547 53.3649 4.18439 53.3486C4.93521 53.3436 5.59514 53.2022 6.03322 52.953C6.81673 52.5068 27.5484 30.4193 28.3521 29.1745C29.0895 28.0322 29.216 26.0845 28.6359 24.8008C28.3517 24.172 24.944 20.3875 17.2774 12.1858C7.86998 2.12178 6.21207 0.434866 5.52411 0.22596C4.38406 -0.120197 3.33217 -0.0681808 2.43286 0.378878Z" fill="#DE8938"/>
</svg>
