<svg width="29" height="54" viewBox="0 0 29 54" fill="none" xmlns="http://www.w3.org/2000/svg">
<path fill-rule="evenodd" clip-rule="evenodd" d="M26.5671 52.9699C28.0016 52.2569 28.9998 50.6535 28.9998 49.0621C28.9998 47.0309 29.1701 47.2494 19.2901 36.6013L10.0343 26.626L19.106 16.8597C24.0953 11.4883 28.337 6.76428 28.532 6.36213C28.7556 5.90045 28.8889 5.16907 28.8936 4.37753C28.9087 1.84538 27.1745 -0.0161858 24.8156 0.000110626C24.0648 0.00512314 23.4049 0.146557 22.9668 0.395782C22.1833 0.842003 1.45164 22.9294 0.647879 24.1743C-0.0895119 25.3166 -0.216013 27.2642 0.36413 28.5479C0.648268 29.1767 4.05596 32.9613 11.7226 41.1629C21.13 51.227 22.7879 52.9139 23.4759 53.1228C24.6159 53.469 25.6678 53.4169 26.5671 52.9699Z" fill="#DE8938"/>
</svg>
