<svg width="11" height="21" viewBox="0 0 11 21" fill="none" xmlns="http://www.w3.org/2000/svg">
<path fill-rule="evenodd" clip-rule="evenodd" d="M0.92281 0.146912C0.37869 0.42338 7.17218e-05 1.04509 7.17218e-05 1.66218C7.17218e-05 2.44978 -0.0645199 2.36505 3.68305 6.49393L7.19389 10.3619L3.75288 14.1488C1.86039 16.2316 0.251499 18.0634 0.177533 18.2193C0.0927146 18.3983 0.0421486 18.6819 0.0403769 18.9888C0.034619 19.9707 0.692421 20.6925 1.58718 20.6862C1.87198 20.6843 2.1223 20.6294 2.28846 20.5328C2.58566 20.3598 10.4494 11.7953 10.7543 11.3125C11.034 10.8696 11.0819 10.1144 10.8619 9.61664C10.7541 9.37282 9.46153 7.90534 6.55351 4.72511C2.98517 0.822731 2.3563 0.168621 2.09535 0.0876171C1.66292 -0.0466071 1.26393 -0.0264375 0.92281 0.146912Z" fill="#FFDDB8"/>
</svg>
